# xmcd CD database file
#
# Track frame offsets:
#	150
#	14215
#	32041
#	56979
#	81059
#	105392
#	121846
#	138119
#	164370
#	183482
#	208885
#	231774
#
# Disc length: 3386 seconds
#
# Revision: 0
# Processed by: cddbd v1.5.2PL0 Copyright (c) Steve Scherf et al.
# Submitted via: CDex 1.70beta3
#
DISCID=a30d380c
DTITLE=カンザスシティバンド - Down Home
DYEAR=2015
DGENRE=Jazz
TTITLE0=男達のメロディー
TTITLE1=お断りだぜ
TTITLE2=カァカァブギ
TTITLE3=千鳥足のジェニー
TTITLE4=月影のラグタイム
TTITLE5=轍(わだち)
TTITLE6=子作りBaby
TTITLE7=犬を飼おう
TTITLE8=ピカピカの革靴
TTITLE9=ここで寝かせてくれ Make Me A Pallet On The Floor
TTITLE10=革命の序曲
TTITLE11=茜色の街
EXTD=YEAR: 2015
EXTT0=
EXTT1=
EXTT2=
EXTT3=
EXTT4=
EXTT5=
EXTT6=
EXTT7=
EXTT8=
EXTT9=
EXTT10=
EXTT11=
PLAYORDER=
